<svg width="48" height="48" viewBox="0 0 48 48" fill="none" xmlns="http://www.w3.org/2000/svg">
<path d="M24.075 19C23.5417 19 23.075 18.8083 22.675 18.425C22.2917 18.025 22.1 17.5583 22.1 17.025C22.1 16.4917 22.2917 16.025 22.675 15.625C23.075 15.225 23.5417 15.025 24.075 15.025C24.625 15.025 25.0917 15.225 25.475 15.625C25.875 16.025 26.075 16.4917 26.075 17.025C26.075 17.5583 25.875 18.025 25.475 18.425C25.0917 18.8083 24.625 19 24.075 19ZM22.475 33V20.5H25.7V33H22.475Z" fill="#70BF50"/>
<g filter="url(#filter0_d_17_29)">
<circle cx="24" cy="24" r="16" stroke="#70BF50" stroke-width="2" shape-rendering="crispEdges"/>
</g>
<defs>
<filter id="filter0_d_17_29" x="0" y="0" width="48" height="48" filterUnits="userSpaceOnUse" color-interpolation-filters="sRGB">
<feFlood flood-opacity="0" result="BackgroundImageFix"/>
<feColorMatrix in="SourceAlpha" type="matrix" values="0 0 0 0 0 0 0 0 0 0 0 0 0 0 0 0 0 0 127 0" result="hardAlpha"/>
<feOffset/>
<feGaussianBlur stdDeviation="3.5"/>
<feComposite in2="hardAlpha" operator="out"/>
<feColorMatrix type="matrix" values="0 0 0 0 0.439216 0 0 0 0 0.74902 0 0 0 0 0.313726 0 0 0 0.35 0"/>
<feBlend mode="normal" in2="BackgroundImageFix" result="effect1_dropShadow_17_29"/>
<feBlend mode="normal" in="SourceGraphic" in2="effect1_dropShadow_17_29" result="shape"/>
</filter>
</defs>
</svg>
